<?xml version="1.0" standalone="no"?>
<!DOCTYPE svg PUBLIC "-//W3C//DTD SVG 20010904//EN"
 "http://www.w3.org/TR/2001/REC-SVG-20010904/DTD/svg10.dtd">
<svg version="1.0" xmlns="http://www.w3.org/2000/svg"
 width="48.000000pt" height="30.000000pt" viewBox="0 0 48.000000 30.000000"
 preserveAspectRatio="xMidYMid meet">

<g transform="translate(0.000000,30.000000) scale(0.100000,-0.100000)"
fill="#000000" stroke="none">
<path d="M41 263 c-36 -44 -38 -54 -11 -78 l20 -18 -25 -27 c-16 -17 -25 -38
-25 -58 0 -31 1 -32 45 -32 43 0 45 1 45 29 0 35 26 62 36 37 3 -9 4 -36 2
-61 -2 -25 0 -45 4 -45 4 0 23 8 43 17 32 15 35 20 35 60 0 41 1 43 30 43 29
0 30 -2 30 -43 0 -40 3 -45 35 -60 20 -9 39 -17 43 -17 4 0 5 27 4 60 -2 33 0
60 5 60 18 0 33 -24 33 -52 0 -27 2 -28 45 -28 44 0 45 1 45 32 0 20 -9 41
-25 58 l-25 27 20 18 c27 25 25 38 -11 80 l-31 35 -168 0 -169 0 -30 -37z m89
-54 c0 -22 -13 -25 -29 -6 -8 10 -7 17 1 25 15 15 28 6 28 -19z m140 6 c0 -21
-5 -25 -30 -25 -25 0 -30 4 -30 25 0 21 5 25 30 25 25 0 30 -4 30 -25z m109
-11 c-16 -19 -29 -17 -29 4 0 26 11 34 27 21 10 -9 10 -15 2 -25z"/>
</g>
</svg>
